<?xml version="1.0" encoding="UTF-8"?>
<svg width="16px" height="16px" viewBox="0 0 16 16" version="1.1" xmlns="http://www.w3.org/2000/svg" xmlns:xlink="http://www.w3.org/1999/xlink">
    <!-- Generator: Sketch 63.1 (92452) - https://sketch.com -->
    <title>分享</title>
    <desc>Created with Sketch.</desc>
    <g id="H5" stroke="none" stroke-width="1" fill="none" fill-rule="evenodd">
        <g id="iPhone-X/XS/11-Pro" transform="translate(-341.000000, -586.000000)" fill="#0097EC">
            <g id="New-group" transform="translate(10.000000, 240.000000)">
                <path d="M346.001007,354 L345.998993,354 C345.723083,354 345.48761,354.097534 345.292572,354.292542 C345.097504,354.487671 344.999969,354.723145 345,354.999023 L345,360 L333,360 L333,348 L338.001007,348 C338.276855,348 338.512299,347.902466 338.707397,347.707397 C338.902466,347.512268 339,347.276794 339,347.000977 L339,346.999023 C339,346.447266 338.552734,346 338.001007,346 L332.998993,346 C332.44696,346 331.9758,346.195129 331.58548,346.585449 C331.19516,346.975769 331,347.44696 331,347.999023 L331,360.000977 C331,360.552917 331.19516,361.024109 331.58548,361.414429 C331.9758,361.804749 332.44696,362 332.998993,362 L345.001007,362 C345.552979,362 346.024139,361.804749 346.41449,361.414429 C346.80484,361.024109 347,360.552917 347,360.000977 L347,354.999023 C347,354.447266 346.552734,354 346.001007,354 L346.001007,354 Z M340.998993,346 L345.001007,346 C345.552979,346 346.02414,346.195129 346.41449,346.585449 C346.80484,346.975769 347,347.446961 347,347.999023 L347,352.000977 C347,352.552734 346.552735,353 346.001007,353 L345.998993,353 C345.723083,353 345.48761,352.902466 345.292572,352.707336 C345.097504,352.512268 344.999969,352.276794 345,352.000977 L345,349.414185 L336.999237,357.414918 C336.905548,357.508607 336.797516,357.580811 336.67514,357.631531 C336.552734,357.68219 336.425323,357.70752 336.292847,357.70752 C336.160339,357.70752 336.032898,357.682129 335.910522,357.63147 C335.788116,357.58075 335.680115,357.508607 335.586456,357.414918 L335.585022,357.413514 C335.389954,357.218384 335.292419,356.98291 335.292419,356.707032 C335.292419,356.431153 335.389954,356.195679 335.585022,356.000671 L343.585724,348 L340.998993,348 C340.723114,348 340.48764,347.902466 340.292542,347.707397 C340.097504,347.512268 339.99997,347.276794 340,347.000977 L340,346.999023 C339.99997,346.723084 340.097504,346.48761 340.292603,346.292542 C340.48764,346.097534 340.723114,346 340.998993,346 L340.998993,346 Z" id="分享"></path>
            </g>
        </g>
    </g>
</svg>